<?xml version="1.0" encoding="utf-8"?>
<!-- Generator: Adobe Illustrator 16.0.0, SVG Export Plug-In . SVG Version: 6.00 Build 0)  -->
<!DOCTYPE svg PUBLIC "-//W3C//DTD SVG 1.1//EN" "http://www.w3.org/Graphics/SVG/1.1/DTD/svg11.dtd">
<svg version="1.1" id="Layer_1" xmlns="http://www.w3.org/2000/svg" xmlns:xlink="http://www.w3.org/1999/xlink" x="0px" y="0px"
	 width="209.5px" height="95.994px" viewBox="-1.784 -17.005 209.5 95.994" enable-background="new -1.784 -17.005 209.5 95.994"
	 xml:space="preserve">
<g>
	<g>
		<path fill="#BABABA" d="M42.733,7.849c3.156,2.243,6.98,5.978,5.286,10.256c-1.07,2.705-3.124,5.391-5.77,8.037
			c-4.253,4.253-5.614,8.092-5.86,10.969c1.332-1.565,3.173-2.771,4.767-3.9c2.383-1.689,4.479-3.719,6.643-5.673
			c4.308-3.896,8.812-9.386,5.423-15.356C50.37,7.159,43.647-1.673,36.847,0.276c-4.622,1.325-9.723,5.799-13.02,9.096
			c-0.405,0.404-0.774,0.831-1.116,1.272c-2.918,2.917-6.862,7.693-9.732,13.15c4.294-3.577,9.33-6.552,13.876-9.597
			C31.252,11.252,37.052,3.81,42.733,7.849z"/>
		<path fill="#BABABA" d="M55.246,60.213c-0.052-0.192-0.11-0.381-0.176-0.565c-1.466-4.094-6.571-6.03-9.462-8.911
			c-2.623-2.613-6.257-5.277-8.346-8.347c-0.011-0.015-1.15-2.037-0.873-5.28c-0.666,0.782-1.215,1.648-1.521,2.652
			c-0.013,0.041-0.024,0.082-0.036,0.123c-1.32,4.633,3.781,8.37,6.595,11.183c10.458,10.458-4.061,23.743-13.199,14.606
			c-4.429-4.428-18.175-17.37-18.941-27.379c-0.371-4.859,1.283-9.92,3.693-14.502c-0.968,0.807-1.911,1.634-2.788,2.511
			C5.289,31.206-2.771,36.389,0.953,44.418c2.918,6.293,9.345,9.908,14.535,14.09c5.503,4.435,10.157,9.596,14.972,14.728
			c2.769,2.948,6.437,6.735,10.89,5.521C47.054,77.198,56.906,66.556,55.246,60.213z"/>
		
			<linearGradient id="SVGID_1_" gradientUnits="userSpaceOnUse" x1="120.2336" y1="-113.7119" x2="165.4108" y2="-113.7119" gradientTransform="matrix(1 0 0 -1 -111 -76.0107)">
			<stop  offset="0" style="stop-color:#AE2160"/>
			<stop  offset="1" style="stop-color:#EE295F"/>
		</linearGradient>
		<path fill="url(#SVGID_1_)" d="M9.285,38.295c0.767,10.009,14.513,22.952,18.941,27.379c9.139,9.137,23.656-4.148,13.199-14.606
			c-2.813-2.813-7.915-6.55-6.595-11.183c0.012-0.041,0.023-0.082,0.036-0.123c0.308-1.004,0.855-1.87,1.521-2.652
			c0.246-2.877,1.606-6.716,5.86-10.969c2.646-2.646,4.699-5.332,5.77-8.037c1.694-4.278-2.129-8.013-5.286-10.256
			c-5.681-4.039-11.48,3.403-15.877,6.348c-4.547,3.045-9.583,6.02-13.876,9.597C10.569,28.375,8.914,33.436,9.285,38.295z"/>
		<path fill="#FFFFFF" d="M9.285,38.295c0.767,10.009,14.513,22.952,18.941,27.379c9.139,9.137,23.656-4.148,13.199-14.606
			c-2.813-2.813-7.915-6.55-6.595-11.183c0.012-0.041,0.023-0.082,0.036-0.123c0.308-1.004,0.855-1.87,1.521-2.652
			c0.246-2.877,1.606-6.716,5.86-10.969c2.646-2.646,4.699-5.332,5.77-8.037c1.694-4.278-2.129-8.013-5.286-10.256
			c-5.681-4.039-11.48,3.403-15.877,6.348c-4.547,3.045-9.583,6.02-13.876,9.597C10.569,28.375,8.914,33.436,9.285,38.295z"/>
	</g>
	<g>
		<g>
			<path fill="#FFFFFF" d="M93.437,14.546c0,0.38-0.324,0.706-0.704,0.706c-0.434,0-0.759-0.325-0.759-0.706
				c0-1.572-0.597-3.036-1.682-4.12L89.75,9.992c-0.977-0.813-2.224-1.246-3.523-1.246H73.81c-1.301,0-2.548,0.433-3.578,1.246
				l-0.488,0.434c-1.084,1.084-1.682,2.548-1.682,4.12c0,11.767,25.646,2.929,25.646,15.833c0,4.012-3.309,7.266-7.211,7.266H73.43
				c-1.897,0-3.741-0.759-5.096-2.114l-0.163-0.217c-1.192-1.247-1.899-2.928-1.953-4.663V30.38c0-0.379,0.325-0.705,0.705-0.705
				c0.434,0,0.759,0.326,0.759,0.705c0,1.464,0.542,2.819,1.519,3.904l0.163,0.217c1.083,1.084,2.549,1.68,4.065,1.68h13.067
				c3.145,0,5.748-2.603,5.748-5.801c0-6.886-8.296-6.181-12.525-7.211c-7.374-0.921-13.123-2.602-13.123-8.621
				c0-1.951,0.761-3.741,2.117-5.15l0.162-0.163c1.356-1.247,3.09-1.952,4.935-1.952h12.417c1.844,0,3.579,0.706,4.934,1.952
				l0.164,0.163c1.354,1.355,2.113,3.199,2.113,5.096L93.437,14.546L93.437,14.546z"/>
			<path fill="#FFFFFF" d="M86.497,38.248H73.43c-2.054,0-4.067-0.836-5.522-2.292l-0.058-0.064l-0.141-0.189
				c-1.273-1.345-2.035-3.177-2.093-5.034v-0.29c0-0.709,0.6-1.309,1.309-1.309c0.751,0,1.363,0.586,1.363,1.309
				c0,1.299,0.471,2.508,1.362,3.5l0.034,0.042l0.136,0.181c0.968,0.951,2.246,1.474,3.609,1.474h13.067
				c2.836,0,5.143-2.332,5.143-5.197c0-4.928-4.756-5.558-8.954-6.112c-1.116-0.147-2.173-0.287-3.074-0.504
				c-6.595-0.826-13.616-2.294-13.616-9.216c0-2.09,0.79-4.015,2.283-5.568l0.173-0.171c1.496-1.378,3.395-2.129,5.359-2.129h12.417
				c1.965,0,3.862,0.751,5.342,2.111l0.181,0.18c1.455,1.455,2.29,3.468,2.29,5.522v0.054c0,0.71-0.6,1.309-1.308,1.309
				c-0.752,0-1.363-0.587-1.363-1.309c0-1.401-0.525-2.703-1.48-3.67l-0.516-0.412c-0.866-0.722-1.98-1.115-3.146-1.115H73.81
				c-1.165,0-2.268,0.382-3.19,1.107l-0.46,0.409c-0.961,0.969-1.491,2.276-1.491,3.681c0,5.22,5.758,6.002,11.854,6.831
				c6.464,0.878,13.791,1.874,13.791,9.001C94.312,34.718,90.806,38.248,86.497,38.248z M68.791,35.133
				c1.228,1.213,2.917,1.908,4.639,1.908h13.067c3.581,0,6.606-3.051,6.606-6.662c0-6.073-6.188-6.915-12.745-7.805
				c-6.341-0.861-12.899-1.753-12.899-8.028c0-1.734,0.66-3.349,1.857-4.547l0.026-0.025l0.514-0.456
				c1.142-0.9,2.51-1.376,3.954-1.376h12.417c1.448,0,2.837,0.493,3.91,1.387l0.583,0.47c1.199,1.198,1.858,2.812,1.858,4.547
				c0,0.043,0.054,0.102,0.154,0.102c0.045,0,0.101-0.055,0.101-0.102v-0.054c0-1.736-0.706-3.438-1.938-4.67L90.733,9.66
				c-1.238-1.139-2.846-1.775-4.507-1.775H73.81c-1.661,0-3.268,0.636-4.524,1.792L69.14,9.822
				c-1.265,1.316-1.938,2.953-1.938,4.724c0,5.352,5.033,7.077,12.593,8.022l0.067,0.013c0.847,0.206,1.884,0.343,2.981,0.488
				c4.222,0.559,10.004,1.322,10.004,7.31c0,3.532-2.849,6.405-6.352,6.405H73.43c-1.699,0-3.296-0.659-4.494-1.856l-0.056-0.065
				l-0.148-0.196c-1.08-1.212-1.652-2.694-1.652-4.287c0-0.043-0.056-0.101-0.155-0.101c-0.047,0-0.103,0.055-0.103,0.101v0.271
				c0.05,1.557,0.7,3.112,1.785,4.245l0.048,0.056L68.791,35.133z"/>
		</g>
		<g>
			<path fill="#FFFFFF" d="M120.331,36.939c0,0.379-0.327,0.705-0.761,0.705c-0.38,0-0.704-0.326-0.704-0.705V23.873
				c0-4.23-3.578-7.809-7.808-7.809h-1.897c-4.229,0-7.698,3.47-7.809,7.645v13.229c0,0.379-0.324,0.705-0.759,0.705
				c-0.379,0-0.706-0.326-0.706-0.705V8.04c0-0.379,0.327-0.705,0.706-0.705c0.435,0,0.759,0.326,0.759,0.705v10.574l1.247-1.302
				c1.683-1.789,4.066-2.656,6.562-2.711h1.897c4.987,0,9.161,4.175,9.271,9.163L120.331,36.939L120.331,36.939z"/>
			<path fill="#FFFFFF" d="M119.571,38.248c-0.709,0-1.309-0.6-1.309-1.309V23.873c0-3.906-3.299-7.205-7.203-7.205h-1.897
				c-3.872,0-7.104,3.165-7.204,7.057v13.214c0,0.722-0.61,1.309-1.362,1.309c-0.711,0-1.308-0.6-1.308-1.309V8.04
				c0-0.709,0.597-1.309,1.308-1.309c0.752,0,1.362,0.586,1.362,1.309v9.07l0.208-0.216c1.695-1.805,4.178-2.835,6.982-2.896h1.911
				c5.327,0,9.758,4.375,9.875,9.755v13.188C120.934,37.661,120.322,38.248,119.571,38.248z M109.161,15.461h1.897
				c4.561,0,8.41,3.852,8.41,8.412v13.066c0,0.045,0.056,0.102,0.102,0.102c0.102,0,0.154-0.061,0.154-0.102V23.764
				c-0.101-4.634-4.068-8.56-8.666-8.56h-1.897c-2.467,0.055-4.645,0.95-6.121,2.521l-2.29,2.392V8.04
				c0-0.042-0.055-0.101-0.155-0.101c-0.047,0-0.1,0.055-0.1,0.101v28.899c0,0.045,0.053,0.102,0.1,0.102
				c0.102,0,0.155-0.06,0.155-0.102v-13.23C100.868,19.154,104.641,15.461,109.161,15.461z"/>
		</g>
		<g>
			<path fill="#FFFFFF" d="M128.625,31.462c1.247,2.874,4.175,4.717,7.212,4.717h10.085c0.379,0,0.703,0.326,0.703,0.705
				c0,0.434-0.324,0.759-0.703,0.759h-10.085c-5.478,0-9.383-4.609-9.383-9.814v-3.741c0-5.096,4.284-9.38,9.383-9.38h4.175
				c5.097,0,9.379,4.284,9.379,9.38v3.796c0,0.758-0.596,1.354-1.301,1.354h-20.44L128.625,31.462z M147.927,24.089
				c0-4.283-3.633-7.917-7.915-7.917h-4.175c-4.231,0-7.916,3.579-7.916,7.917v3.687h20.006V24.089z"/>
			<path fill="#FFFFFF" d="M145.922,38.248h-10.085c-5.601,0-9.985-4.575-9.985-10.417V24.09c0-5.412,4.573-9.983,9.985-9.983h4.175
				c5.41,0,9.984,4.571,9.984,9.983v3.796c0,1.08-0.856,1.958-1.906,1.958h-19.518l0.604,1.377c1.132,2.606,3.808,4.355,6.659,4.355
				h10.085c0.708,0,1.309,0.6,1.309,1.309C147.231,37.636,146.644,38.248,145.922,38.248z M127.269,29.875
				c0.863,4.148,4.318,7.166,8.568,7.166h10.085c0.04,0,0.1-0.054,0.1-0.156c0-0.046-0.055-0.102-0.1-0.102h-10.085
				c-3.327,0-6.446-2.041-7.767-5.08L127.269,29.875z M127.092,28.635h20.998c0.385,0,0.697-0.337,0.697-0.75v-3.796
				c0-4.756-4.019-8.776-8.775-8.776h-4.175c-4.759,0-8.777,4.02-8.777,8.776v3.741C127.06,28.102,127.072,28.371,127.092,28.635z
				 M148.532,28.379h-21.215v-4.291c0-4.619,3.899-8.52,8.521-8.52h4.175c4.617,0,8.521,3.901,8.521,8.52L148.532,28.379
				L148.532,28.379z M128.525,27.172h18.8v-3.083c0-3.963-3.35-7.312-7.312-7.312h-4.175c-3.964,0-7.312,3.349-7.312,7.312V27.172z"
				/>
		</g>
		<g>
			<path fill="#FFFFFF" d="M154.975,7.661c0-0.433,0.326-0.759,0.706-0.759c0.435,0,0.759,0.326,0.759,0.759v10.954l1.247-1.302
				c1.682-1.789,4.067-2.656,6.56-2.711h4.067c5.098,0,9.271,4.229,9.271,9.272v4.499c0,5.097-4.175,9.272-9.271,9.272h-4.067
				c-5.095,0-9.271-4.175-9.271-9.272V7.661z M156.44,28.372c0,4.284,3.524,7.808,7.807,7.808h4.067
				c4.284,0,7.809-3.524,7.809-7.808v-4.499c0-4.285-3.523-7.809-7.809-7.809h-4.067c-4.173,0-7.807,3.47-7.807,7.645v1.518V28.372z
				"/>
			<path fill="#FFFFFF" d="M168.314,38.248h-4.067c-5.443,0-9.874-4.43-9.874-9.875V7.661c0-0.752,0.589-1.363,1.31-1.363
				c0.767,0,1.363,0.599,1.363,1.363v9.449l0.207-0.216c1.695-1.805,4.177-2.835,6.981-2.896h4.08c5.445,0,9.875,4.431,9.875,9.876
				v4.499C178.189,33.817,173.759,38.248,168.314,38.248z M155.681,7.505c-0.042,0-0.101,0.054-0.101,0.156v20.711
				c0,4.78,3.889,8.668,8.665,8.668h4.067c4.78,0,8.668-3.889,8.668-8.668v-4.499c0-4.701-3.969-8.669-8.668-8.669h-4.067
				c-2.466,0.055-4.643,0.95-6.118,2.521l-2.291,2.392V7.661C155.836,7.561,155.782,7.505,155.681,7.505z M168.314,36.783h-4.067
				c-4.637,0-8.409-3.773-8.409-8.411v-4.663c0-4.471,3.853-8.249,8.409-8.249h4.067c4.639,0,8.41,3.774,8.41,8.412v4.499
				C176.724,33.01,172.952,36.783,168.314,36.783z M164.246,16.668c-3.903,0-7.201,3.224-7.201,7.041v4.663
				c0,3.973,3.23,7.204,7.201,7.204h4.067c3.974,0,7.204-3.23,7.204-7.204v-4.499c0-3.974-3.23-7.205-7.204-7.205H164.246z"/>
		</g>
		<g>
			<path fill="#FFFFFF" d="M194.395,14.709c5.041,0,9.433,4.175,9.433,9.38v4.175c0,5.206-4.392,9.38-9.433,9.38h-6.02
				c-4.066,0-7.319-3.253-7.319-7.32c0-4.011,3.253-7.266,7.319-7.266h13.935l-0.219-0.868c-0.866-3.47-4.118-6.019-7.696-6.019
				h-9.598c-0.38,0-0.705-0.325-0.705-0.704c0-0.434,0.325-0.759,0.705-0.759h0.705L194.395,14.709L194.395,14.709z M194.395,36.18
				c4.392,0,7.915-3.687,7.915-7.916v-3.741h-13.935c-3.252,0-5.855,2.602-5.855,5.801c0,3.253,2.604,5.855,5.855,5.855h3.254
				L194.395,36.18L194.395,36.18z"/>
			<path fill="#FFFFFF" d="M194.395,38.248h-6.02c-4.369,0-7.922-3.554-7.922-7.923c0-4.339,3.553-7.87,7.922-7.87h13.16
				l-0.028-0.117c-0.806-3.221-3.797-5.561-7.112-5.561h-9.598c-0.71,0-1.312-0.599-1.312-1.308c0-0.751,0.591-1.363,1.312-1.363
				h9.598c5.439,0,10.037,4.571,10.037,9.983v4.175C204.432,33.676,199.834,38.248,194.395,38.248z M188.375,23.663
				c-3.702,0-6.716,2.988-6.716,6.662c0,3.704,3.014,6.716,6.716,6.716h6.02c4.786,0,8.828-4.019,8.828-8.777v-4.175
				c0-4.756-4.042-8.776-8.828-8.776h-9.598c-0.042,0-0.103,0.054-0.103,0.156c0,0.045,0.056,0.101,0.103,0.101h9.598
				c3.862,0,7.347,2.724,8.284,6.476l0.403,1.618L188.375,23.663L188.375,23.663z M194.395,36.783h-6.02
				c-3.562,0-6.46-2.898-6.46-6.459c0-3.532,2.897-6.405,6.46-6.405h14.538v4.345C202.914,32.882,199.013,36.783,194.395,36.783z
				 M188.375,25.126c-2.896,0-5.252,2.332-5.252,5.198c0,2.896,2.354,5.251,5.252,5.251h6.02c3.962,0,7.312-3.348,7.312-7.312
				v-3.137H188.375z"/>
		</g>
		<g>
			<path fill="#FFFFFF" d="M80.154,71.381c0,0.379-0.325,0.705-0.704,0.705c-0.436,0-0.761-0.326-0.761-0.705V43.241H66.925
				c-0.381,0-0.706-0.324-0.706-0.759c0-0.379,0.325-0.704,0.706-0.704h24.994c0.379,0,0.705,0.325,0.705,0.704
				c0,0.435-0.326,0.759-0.705,0.759H80.154V71.381z"/>
			<path fill="#FFFFFF" d="M79.449,72.692c-0.753,0-1.362-0.588-1.362-1.311V43.845H66.925c-0.723,0-1.31-0.61-1.31-1.362
				c0-0.709,0.6-1.309,1.31-1.309h24.994c0.709,0,1.309,0.6,1.309,1.309c0,0.752-0.588,1.362-1.309,1.362H80.758v27.536
				C80.758,72.09,80.159,72.692,79.449,72.692z M66.925,42.383c-0.047,0-0.104,0.055-0.104,0.1c0,0.102,0.061,0.155,0.104,0.155
				h12.369v28.743c0,0.043,0.054,0.102,0.155,0.102c0.045,0,0.101-0.055,0.101-0.102V42.638h12.369c0.042,0,0.102-0.054,0.102-0.155
				c0-0.045-0.057-0.1-0.102-0.1H66.925z"/>
		</g>
		<g>
			<path fill="#FFFFFF" d="M94.36,65.907c1.247,2.873,4.176,4.717,7.212,4.717h10.083c0.382,0,0.705,0.326,0.705,0.705
				c0,0.432-0.323,0.758-0.705,0.758h-10.083c-5.477,0-9.38-4.607-9.38-9.812v-3.74c0-5.097,4.284-9.381,9.38-9.381h4.175
				c5.096,0,9.38,4.284,9.38,9.381v3.795c0,0.758-0.598,1.354-1.302,1.354h-20.44L94.36,65.907z M113.662,58.534
				c0-4.285-3.634-7.918-7.916-7.918h-4.175c-4.229,0-7.915,3.58-7.915,7.918v3.688h20.005L113.662,58.534L113.662,58.534z"/>
			<path fill="#FFFFFF" d="M111.655,72.692h-10.083c-5.599,0-9.983-4.576-9.983-10.419v-3.739c0-5.412,4.572-9.984,9.983-9.984
				h4.175c5.411,0,9.981,4.572,9.981,9.984v3.795c0,1.08-0.853,1.957-1.903,1.957H94.309l0.605,1.379
				c1.131,2.606,3.806,4.354,6.657,4.354h10.083c0.709,0,1.31,0.601,1.31,1.31C112.963,72.081,112.377,72.692,111.655,72.692z
				 M93.003,64.317c0.864,4.148,4.316,7.166,8.567,7.166h10.083c0.042,0,0.103-0.055,0.103-0.154c0-0.047-0.055-0.103-0.103-0.103
				h-10.083c-3.325,0-6.446-2.042-7.765-5.079L93.003,64.317z M92.827,63.079h20.997c0.386,0,0.697-0.336,0.697-0.75v-3.795
				c0-4.758-4.02-8.777-8.775-8.777h-4.175c-4.759,0-8.776,4.021-8.776,8.777v3.739C92.795,62.545,92.805,62.814,92.827,63.079z
				 M114.265,62.823H93.052v-4.289c0-4.619,3.902-8.521,8.52-8.521h4.175c4.617,0,8.52,3.902,8.52,8.521L114.265,62.823
				L114.265,62.823z M94.26,61.616h18.797v-3.082c0-3.966-3.348-7.312-7.312-7.312h-4.175c-3.965,0-7.312,3.348-7.312,7.312
				L94.26,61.616L94.26,61.616z"/>
		</g>
		<g>
			<path fill="#FFFFFF" d="M138.874,70.624c0.38,0,0.706,0.326,0.706,0.705c0,0.432-0.326,0.758-0.706,0.758h-8.783
				c-5.097,0-9.379-4.282-9.379-9.379v-4.174c0-5.098,4.282-9.382,9.379-9.382h8.783c0.38,0,0.706,0.326,0.706,0.759
				c0,0.379-0.326,0.705-0.706,0.705h-8.783c-4.176,0-7.917,3.525-7.917,7.918v4.174c0,4.285,3.633,7.916,7.917,7.916h8.078H138.874
				z"/>
			<path fill="#FFFFFF" d="M138.874,72.692h-8.783c-5.411,0-9.984-4.574-9.984-9.984v-4.174c0-5.412,4.573-9.984,9.984-9.984h8.783
				c0.722,0,1.31,0.609,1.31,1.361c0,0.711-0.6,1.311-1.31,1.311h-8.783c-3.963,0-7.312,3.348-7.312,7.312v4.174
				c0,3.963,3.351,7.312,7.312,7.312h8.783c0.71,0,1.31,0.601,1.31,1.31C140.183,72.081,139.595,72.692,138.874,72.692z
				 M130.09,49.754c-4.758,0-8.775,4.021-8.775,8.777v4.174c0,4.758,4.019,8.776,8.775,8.776h8.783c0.042,0,0.101-0.056,0.101-0.153
				c0-0.047-0.054-0.104-0.101-0.104h-8.783c-4.618,0-8.521-3.9-8.521-8.52v-4.174c0-4.619,3.901-8.521,8.521-8.521h8.783
				c0.047,0,0.101-0.055,0.101-0.102c0-0.101-0.059-0.156-0.101-0.156h-8.783V49.754z"/>
		</g>
		<g>
			<path fill="#FFFFFF" d="M165.495,71.381c0,0.379-0.325,0.705-0.761,0.705c-0.379,0-0.705-0.326-0.705-0.705V58.316
				c0-4.229-3.576-7.81-7.807-7.81h-1.897c-4.229,0-7.699,3.47-7.808,7.646v13.229c0,0.379-0.325,0.705-0.761,0.705
				c-0.378,0-0.704-0.325-0.704-0.705V42.483c0-0.379,0.326-0.704,0.704-0.704c0.436,0,0.761,0.325,0.761,0.704v10.574l1.246-1.303
				c1.682-1.789,4.067-2.656,6.562-2.711h1.897c4.99,0,9.163,4.174,9.271,9.162L165.495,71.381L165.495,71.381z"/>
			<path fill="#FFFFFF" d="M164.735,72.692c-0.708,0-1.309-0.602-1.309-1.311V58.316c0-3.905-3.299-7.204-7.203-7.204h-1.897
				c-3.871,0-7.104,3.165-7.203,7.057v13.213c0,0.724-0.612,1.312-1.364,1.312c-0.707,0-1.308-0.601-1.308-1.312V42.483
				c0-0.709,0.601-1.309,1.308-1.309c0.752,0,1.364,0.586,1.364,1.309v9.068l0.207-0.215c1.695-1.805,4.178-2.836,6.982-2.896h1.911
				c5.328,0,9.759,4.376,9.877,9.755v13.187C166.1,72.104,165.487,72.692,164.735,72.692z M154.325,49.904h1.897
				c4.561,0,8.412,3.854,8.412,8.412v13.065c0,0.047,0.055,0.102,0.1,0.102c0.103,0,0.156-0.059,0.156-0.102V58.208
				c-0.101-4.635-4.07-8.56-8.668-8.56h-1.897c-2.467,0.054-4.645,0.95-6.119,2.521l-2.292,2.391V42.483
				c0-0.042-0.055-0.1-0.156-0.1c-0.044,0-0.101,0.055-0.101,0.1v28.898c0,0.047,0.057,0.102,0.101,0.102
				c0.103,0,0.156-0.059,0.156-0.102V58.153C146.032,53.597,149.805,49.904,154.325,49.904z"/>
		</g>
	</g>
</g>
</svg>
